/* XPM */
static char *_176d1e689f34c47f2414d64cc96b9f3vGbV1xtamzcFcn00[] = {
/* columns rows colors chars-per-pixel */
"64 64 213 2 ",
"   c #0C0C0C",
".  c gray9",
"X  c #313131",
"o  c #373737",
"O  c gray23",
"+  c #3F3F3F",
"@  c #354611",
"#  c #1B4328",
"$  c #4A4A01",
"%  c #515101",
"&  c #545401",
"*  c #5B5B01",
"=  c #616101",
"-  c #656501",
";  c #727201",
":  c #7F7F01",
">  c #004F4F",
",  c #005555",
"<  c #005B5B",
"1  c #1B6146",
"2  c #1B6348",
"3  c #1B664B",
"4  c #1B694E",
"5  c #1B6F54",
"6  c #006060",
"7  c #006363",
"8  c #006666",
"9  c #006767",
"0  c #006A6A",
"q  c #007070",
"w  c #007171",
"e  c #007373",
"r  c #007575",
"t  c #007878",
"y  c #007C7C",
"u  c #007F7F",
"i  c gray25",
"p  c #434343",
"a  c #464646",
"s  c gray28",
"d  c #4B4B4B",
"f  c #4E4E4E",
"g  c #515151",
"h  c gray33",
"j  c gray34",
"k  c gray36",
"l  c #606060",
"z  c #626262",
"x  c gray39",
"c  c gray40",
"v  c #676767",
"b  c #6A6A6A",
"n  c #6D6D6D",
"m  c gray44",
"M  c gray45",
"N  c #767676",
"B  c #777777",
"V  c gray49",
"C  c #3F8748",
"Z  c #228A79",
"A  c #478F5A",
"S  c #5DA548",
"D  c #939301",
"F  c #A0A001",
"G  c #A3A301",
"H  c #A5A501",
"J  c #B0B001",
"K  c #BABA01",
"L  c #C1C101",
"P  c #C6C601",
"I  c #C8C801",
"U  c #CFCF01",
"Y  c #D2D201",
"T  c #D5D501",
"R  c #D6D601",
"E  c #D8D801",
"W  c #CFCF16",
"Q  c #E0E001",
"!  c #F4F401",
"~  c #F8F816",
"^  c #008282",
"/  c #008484",
"(  c #008686",
")  c #008787",
"_  c #008888",
"`  c #008C8C",
"'  c #008F8F",
"]  c #009090",
"[  c #009191",
"{  c #009595",
"}  c #009696",
"|  c #099595",
" . c #009898",
".. c #009B9B",
"X. c #009E9E",
"o. c #009F9F",
"O. c #099999",
"+. c #119494",
"@. c #1B9696",
"#. c #119898",
"$. c #119B9B",
"%. c #119D9D",
"&. c #1B9898",
"*. c #1B9C9C",
"=. c #259B9B",
"-. c #309D9D",
";. c #3B9F9F",
":. c #00A1A1",
">. c #00A4A4",
",. c #00A7A7",
"<. c #09A5A5",
"1. c #09A7A7",
"2. c #09AAAA",
"3. c #11A0A0",
"4. c #11A1A1",
"5. c #11A7A7",
"6. c #11ABAB",
"7. c #11ADAD",
"8. c #1BABAB",
"9. c #1BACAC",
"0. c #1AAEAE",
"q. c #1AB1B1",
"w. c #25A0A0",
"e. c #25A5A5",
"r. c #25A7A7",
"t. c #25A9A9",
"y. c #25ACAC",
"u. c #25AFAF",
"i. c #30A3A3",
"p. c #3BA2A2",
"a. c #3BA4A4",
"s. c #3BA6A6",
"d. c #3BA9A9",
"f. c #3BADAD",
"g. c #24B2B2",
"h. c #23B4B4",
"j. c #24B4B4",
"k. c #25B5B5",
"l. c #2DB8B8",
"z. c #3BB0B0",
"x. c #3BB3B3",
"c. c #39B7B7",
"v. c #3BB6B6",
"b. c #37BBBB",
"n. c #3BB9B9",
"m. c #38BCBC",
"M. c #45A4A4",
"N. c #4FA9A9",
"B. c #56ACAC",
"V. c #5DAFAF",
"C. c #45B8B8",
"Z. c #41BFBF",
"A. c #44BCBC",
"S. c #4FBABA",
"D. c #4DBFBF",
"F. c #56B1B1",
"G. c #59B5B5",
"H. c #5DB4B4",
"J. c #4BC3C3",
"K. c #4FC3C3",
"L. c #57C4C4",
"P. c #56C5C5",
"I. c #58C3C3",
"U. c #5EC7C7",
"Y. c #61C7C7",
"T. c #61C9C9",
"R. c #6CC9C9",
"E. c #68CCCC",
"W. c #6BCDCD",
"Q. c #6FCFCF",
"!. c #77CBCB",
"~. c #72D0D0",
"^. c #75D1D1",
"/. c #808080",
"(. c #818181",
"). c gray53",
"_. c #898989",
"`. c #8E8E8E",
"'. c gray56",
"]. c #929292",
"[. c #959595",
"{. c #9B9B9B",
"}. c gray61",
"|. c gray62",
" X c gray64",
".X c #ACACAC",
"XX c gray68",
"oX c gray69",
"OX c #B1B1B1",
"+X c gray73",
"@X c #81D0D0",
"#X c #80D3D3",
"$X c #83D7D7",
"%X c #87D6D6",
"&X c #8BD5D5",
"*X c #8FDADA",
"=X c #90D6D6",
"-X c #95DADA",
";X c #99DBDB",
":X c #9FDFDF",
">X c #9EE0E0",
",X c #A6E2E2",
"<X c #A9E1E1",
"1X c #ADE5E5",
"2X c #B4E8E8",
"3X c #BBEBEB",
"4X c gray76",
"5X c #C5C5C5",
"6X c #C8C8C8",
"7X c gray84",
"8X c gray85",
"9X c #CBF1F1",
"0X c #D3F4F4",
/* pixels */
"O O O O O O O O O O O O O O O O O O O O O O O O O O O O O O O O O O O O O O O O O O O O O O O O O O O O O O O O O O O O O O O O ",
"O w w w w w w w w w w w w w w w w w w w w w w w w w w w w w w w w w w w w w w w w w w w w w w w w w w w w w w w w w w w w w w p ",
"O ^ ^ ^ ^ ^ u *.^ ^ ^ ^ ^ ^ u *.^ ^ ^ ( ^ ^ u *.^ ^ ^ ^ ^ ^ ^ *.^ ^ ^ ^ ^ ^ ^ *.^ ^ ^ ^ ^ ^ u *.^ ^ ^ ^ ^ ^ ^ *.^ ^ ^ ^ ^ ^ r p ",
"O [ [ [ [ ' t ( [ [ [ [ [ ' t _ [ [ [ [ [ ' r _ [ [ [ [ [ [ ^ [ [ [ [ [ [ [ r ( [ [ [ [ [ ' t ( [ [ [ [ [ [ r ( [ [ [ [ [ [ u + ",
"O ,.,.,.,.X.( ' ,.,.,.,.,.X.( ' :.,.,.,.,.X.( [ ,.,.,.,.,.X.' ' ,.,.,.,.,.X.( ' ,.,.,.,.,.X.( ' ,.,.,.,.,.X.( ' ,.,.,.,.,.,.^ O ",
"O h.h.h.h.g.r < < < < < < < < < < < < < < < < < < < < < < < < < < < < < < < < < < < < < < < < < < < < < < < < < < 7 h.h.h.h._ O ",
"O h.h.h.h.b.u.' [ ' _ ( ^ ^ u u u r u r w r r w r r r r r t u ^ ^ ^ ( ( ( ( _ ' [ [ #.4.%.4.4.u.0.u.c.D.I.D.T.E.~.7 h.h.h.h.' O ",
"O h.5.*Xh.b.k.:.X.} } [ _ ( ^ ^ u u r r r r r r w t u u ^ u u u ( ( _ [ [ ....X.,.2.7.h.h.h.l.b.K.U.R.!.-X-X,X,X,X0 h.5.*Xh.' O ",
"O q...} h.b.k.....[ ' ( ^ ^ u u ^ r r w r r r w r t t ^ t ^ ^ ^ _ ' ' [ } ..:.,.6.q.h.h.h.b.b.J.L.!.!.@X:X>X1X2X1X0 q.X.} h.' O ",
"O h.7.q.h.b.u...' ' _ ( ^ u u t t r r r w r w ^ t u u t ^ ^ ( ' ' [ } ....,.<.7.h.q.h.h.b.Z.J.R.R.@X-X:X,X1X3X3X$X7 h.7.q.h._ O ",
"O h.h.h.h.b.t.' [ _ ( ^ u u u t t r r w r r r t ^ u u u ^ ^ ( _ ' } [ ....,.2.q.h.h.h.h.Z.J.J.!.!.&X-X:X1X2X3X>X^.7 k.h.h.h.' O ",
"O h.h.h.h.b.u.' _ ^ ^ u u u r r w r r r r r u t u u ^ ^ _ _ ' ' } ..X.:.,.7.7.h.h.h.Z.b.J.Y.!.@X&X>X,X1X3X3X1X,XL.0 h.h.h.h._ O ",
"O h.h.h.h.b.t._ _ ^ ^ t t u t r r r r r t r u t t u u ( _ _ [ [ } ..:.<.,.h.q.h.h.h.b.J.L.R.!.&X-X:X,X2X3X,X,X@Xc.0 h.h.h.h.' O ",
"O h.h.h.h.b.e.^ ^ t u u t r w r w r w r u u u u u ^ ( _ _ ' ..} ..X.,.2.h.h.h.h.b.Z.J.L.!.@X@X>X:X2X3X3X1X-X-X!.f.0 h.h.h.h._ O ",
"O h.h.h.h.b.e.^ ^ u t u r r r r r r u t u u t ^ ^ ( _ ' ' } ..X.:.,.2.q.h.h.h.l.Z.J.Y.R.@X-X-X,X1X3X3X,X,X-X@XY.f.7 h.h.h.h.' O ",
"O h.5.*Xh.b.e.u u t u r r r w r r r t t ^ t u ^ ( ' _ ' } [ ..:.,.2.0.h.h.h.l.b.J.J.!.!.@X-X>X1X2X2X1X,X&X!.Y.I.t.0 h.%.*Xh.' O ",
"O q...} h.b.w.u u r r r r r w r t ^ u t u ^ ( ( _ [ [ [ ..X.:.:.7.h.h.h.h.Z.b.J.R.R.@X&X>X,X1X3X3X2X:X&X@XR.R.J.e.7 q...[ h._ O ",
"O h.7.q.h.b.=.u ^ r r w r w r t t t u t u u ( ( ( ' [ ....X.,.2.7.h.h.h.h.Z.J.L.R.!.&X-X:X1X2X3X,X-X&X!.R.J.J.l.e.0 h.7.q.h.' O ",
"O h.h.h.h.b.w.r r r r r r r r t ^ u t u ^ ( _ ' ' [ } X.X.,.q.q.h.h.h.Z.Z.J.Y.!.@X&X:X,X2X3X2X1X1X-X@XR.Y.J.Z.l.%.7 h.h.h.h.' O ",
"O h.h.h.h.b.w.t r w r w r t u u u u ^ ^ ( ( ' [ } X...:.,.2.q.h.h.h.l.b.J.Y.R.!.-X-X,X,X2X3X1X,X@X@XY.L.J.b.l.h.%.7 h.h.h.h._ O ",
"O h.h.h.h.m.=.r r w r r w u u t u u ( _ _ _ [ } [ X.:.:.2.q.q.h.h.l.b.J.L.!.!.@X:X:X1X2X3X1X-X&X!.R.L.J.m.b.h.h.%.7 h.h.h.h.' O ",
"O h.h.h.h.Z.-.w r r r t ^ t u ^ u ^ ( _ [ ' } } X.:.:.7.h.h.h.h.b.Z.J.R.R.@X-X>X,X1X3X3X,X,X-X@XR.Y.J.b.l.h.h.h.+.0 h.h.h.h._ O ",
"O h.h.h.h.K.p.w r w r r t ^ u t u ( _ _ [ [ } ..X.,.2.7.h.h.h.h.b.J.J.R.!.&X-X:X1X2X3X,X1X&X!.Y.K.J.b.l.h.h.q.,.} 7 h.h.h.h.' O ",
"O h.5.*Xh.L.M.r w r ^ ^ t u u ( ( ( _ ' } } ..:.,.q.q.h.h.h.b.Z.J.L.!.@X&X:X,X1X3X3X2X:X-X@XY.R.J.J.l.h.h.q.q.,.} < h.O.*Xh._ O ",
"O 0...} h.E.B.w t t u u t ^ ^ _ _ ( [ } ....:.,.2.h.h.h.h.l.Z.J.U.R.@X&X-X,X,X2X3X>X:X&X!.Y.L.J.l.h.h.h.h.,.,.:.[ < q.( [ q._ O ",
"O h.7.q.h.Q.V.r u u u t ^ ^ ^ _ [ ' [ [ X.:.:.2.7.h.h.h.l.b.J.J.!.!.@X-X:X2X2X3X1X1X-X!.R.Y.J.Z.b.h.h.q.6.,.,.X.' < h.7.7.,.' O ",
"O h.h.h.h.Q.H.t u u u u ^ ( ( [ [ [ X...:.,.7.q.h.h.h.Z.b.J.R.R.@X&X>X,X1X3X3X2X,X&X@XT.Y.J.b.b.h.h.h.2.,.:.:...( < h.q.:...( O ",
"O h.h.h.h.Q.H.u u t u ^ ^ ' ^ h B (.(.(.(.(.(.(.`.h.h.Z.J.L.R.!.&X-X:X1X2X3X,X-X-X!.Y.L.J.b.h.h.h.q.2.,.:.X...' ^ < q.:...[ ( O ",
"O h.h.h.h.Q.H.u t ^ ( ( _ [ ^ p l n v v v v v v (.Z.Z.J.Y.!.@X&X:X,X2X3X3X2X-X&X@XY.R.J.Z.b.h.h.h.q.,.:.:.X.} [ u < :...' ' ( O ",
"O h.h.h.h.Q.H.u t H ! ! S ' ^ p x l v v v x k v (.b.J.Y.R.!.-X-X,X,X2X3X:X:X&X@XR.J.J.l.b.h.h.h.,.,.:.X.X.[ } ( t < ..' ' ' ( O ",
"O h.h.h.h.Q.H.t < - E Q C [ ^ p v v v v v v v v (.J.I.!.!.@X>X:X1X2X3X1X,X&X!.R.L.J.J.h.h.h.q.q.,.,.:...} _ ' ( u < ' ' ' ' ( O ",
"O h.6.*Xh.Q.H.w , # R R } ..( p v v v v v v v v (.R.R.@X-X:X,X1X3X3X2X,X&X@XR.Y.J.Z.l.h.h.h.2.,.X.:.X.[ } _ ( ^ r < [ r 8.' ( O ",
"O q.....k.E.F.w t 1 R R [ ..( p v v v v v v v v _.!.!.&X-X:X1X2X3X:X-X-X!.Y.J.J.b.h.h.h.q.2.,.:.X...} [ _ ( ^ u r < ' t u [ [ O ",
"O h.6.q.h.b.i.t ' 2 R U X.:.' p v x = G I ~ v b `.@X&X:X,X1X3X3X1X,X-X@XY.R.J.J.l.h.h.q.7.,.:.:.X...[ ( ( ^ ( u r < ' [ [ X.( O ",
"O h.h.h.1.:.] u ' 3 R U ,.<.' p v g % X   W v n |.&X-X:X,X2X3X,X,X@X!.Y.I.J.l.b.h.h.h.,.,.,.....' ' ' ( ^ ^ t u r < [ [ :.2.[ O ",
"O h.h.h.:.:.} u } 3 Y P :.2.+.p v d % s . I v V oX>X:X2X3X3X1X-X-X!.R.Y.J.Z.h.k.h.q.6.,.:.X...} } ' ( ^ ^ u u u t < [ X.2.h._ O ",
"O h.h.h.:...} ( } 4 L J 2.q.+.p v + % B d K n [.4X,X1X3X3X,X,X-X@XT.Y.J.b.b.h.h.h.2.,.,.:.X.[ ' ( ( ^ u u u u w w < :.2.h.q.' O ",
"O h.h.h.:...[ / ..5 F G q.h.+.p v o $ & = ; B |.5X1X2X2X1X,X&X!.Y.L.J.b.l.h.h.q.2.,.:.X.} } [ ( ( ( u u u r u r w < 2.h.q.:._ O ",
"O h.h.h.:...} ) >.5 D D h.h.+.p v p o a h v V  X6X3X3X2X>X&X@XR.R.J.Z.l.h.h.h.q.,.:.:.....' ' ( ^ ( u ^ u t r r w < h.q.:.q.' O ",
"O h.5.*XX...[ ) ..* : : A h.+.p v v v v v M _..X7X3X,X-X&X!.R.J.J.l.b.h.h.h.,.,.:.X.X.[ ' ( ( ^ u t t t r w r r w < q.X.*Xh._ O ",
"O q...} :...} u 7 @ & & Z Z.@.p v v v v m /.}.+X8X1X1X-X@XR.U.J.Z.l.h.h.q.q.,.,.:...} [ ' ( ( ^ t u u t r r r r w < X.....h.' O ",
"O h.7.q.:...[ w < > 0 4.l.b.=.p v v v m /.}.oX X5X,X@X@XT.L.J.b.l.h.h.h.2.,.:.:...} [ _ ( ^ u u u u r r r w r w w < 2.7.0.h._ O ",
"O h.h.h.:...} t r u 0.l.b.J.=.p j b M /.|.oX].)..X&X!.R.L.J.Z.l.h.h.q.7.,.X.X...[ ' ' ( ^ ^ t u r t w r r r r r w < h.h.h.h.' O ",
"O h.h.h.:...] y ^ 8.b.Z.J.R.-.O d d g x m b k j {.@XR.Y.J.b.l.h.h.h.7.,.,.:...[ [ ' ( ^ ^ t ^ ^ t t r r r w t r r < h.h.h.h._ O ",
"O h.h.h.:.<.| ' q.h.Z.J.K.R.G.M.N.B.B.V.V.N.F.f.!.Y.J.J.b.l.h.h.q.,.,.:...X.[ } ( ( ( u t u t t r r r r r r w r w < h.h.h.h.' O ",
"O h.h.h.q.u.u.0.Z.b.J.U.!.@X&X:X:X1X3X3X2X:X-X@XY.R.J.J.l.h.h.q.q.,.,.X.....' [ _ ^ ^ u t u u r r w r w r w u u r < h.h.h.h._ O ",
"O h.h.h.h.U.U.j.b.J.L.!.!.&X-X,X,X2X3X:X:X&X!.Y.I.J.l.h.h.h.h.,.,.:.X...' [ _ ( ^ u u u u r r r r r r r r u ^ t t < h.h.h.h.' O ",
"O h.5.*Xh.~.$XZ.J.L.!.@X!.:X:X2X2X3X1X1X-X!.R.Y.J.Z.b.h.h.q.6.,.,.X...} [ _ ( ( ^ u u r t r r w w r w t t u t u u < h.5.*Xh.' O ",
"O q...} h.Q.$XJ.Y.R.@X-X-X,X1X3X3X2X,X&X@XY.Y.J.b.b.h.h.h.2.,.,.X.X.X.[ ( ( ^ ^ t ^ ^ t r r r r r r r u u t ^ ( t < q...} h.' O ",
"O h.6.q.h.Q.$XJ.!.!.@X-X:X1X2X3X>X-X-X!.Y.L.J.b.h.h.h.q.2.,.:.....[ _ _ ( ^ u u ^ t r r r r w r r r r u u ^ ^ _ ^ < h.7.q.h._ O ",
"O h.h.h.h.Q.;X!.@X&X>X,X1X3X3X1X,X&X@XY.R.J.Z.b.h.h.h.q.,.:.:...} [ ' ( ^ ( t u u w r r r w r r r t u u ^ ^ ( ( ( < h.h.h.h.' O ",
"O h.h.h.j.~.;X!.&X-X:X1X2X3X,X1X@X!.R.J.J.l.b.h.h.h.,.,.X.X.X.[ } ( ( ( t u ^ t r r w r r r r r ^ t u ^ ^ ( [ ' ( < h.h.h.h._ O ",
"O h.h.h.h.Q.:X&X:X:X2X3X3X2X-X-X!.R.Y.J.J.h.h.h.q.q.,.,.X...} ' ' ( ( ^ t u t u r r r w r r r r t ^ u ^ ( ( [ [ ( < h.h.h.h.' O ",
"O h.h.h.h.Q.1X-X,X,X3X3X,X:X&X@XU.P.K.b.l.h.h.h.2.,.:.X.X.[ [ ' ( ^ u u u u t r r r r r r w u u u ^ ^ ( [ [ } X.' < h.h.h.h._ O ",
"O h.h.h.h.Q.1X>X1X2X2X1X,X&X!.R.P.J.b.l.h.h.q.2.,.X.:...} } ( ( ^ u t ^ ^ r r w r w r w r u t u t ^ ( [ ' ' ....[ < h.h.h.h.' O ",
"O h.5.>Xl.$X2X1X3X3X2X,X&X@XR.Y.J.J.l.h.h.h.7.,.:.,.....[ _ _ ( ^ u u t r r r r r r t r r u u ^ ( ( _ [ } X.:.,.[ < h.5.*Xh.' O ",
"O q...3.I.<X9X2X3X,X-X-X!.R.J.J.b.l.h.k.q.,.,.,.....[ ' ' ( ^ ^ u u u r r w r r w r w u u t ^ ( ( ' [ } ..X.:.,.| < q.:.X.h._ O ",
"O h.q.L.!.<X0X3X1X,X>X-X#X&X^.^.E.T.T.T.U.L.K.K.S.D.C.f.d.a.e.w.=.p.p.p.;.;.;.@.+.@.p.a.a.a.p.d.d.f.f.x.v.c.n.A.0.7 h.7.q.h.' O ",
"O l.L.!.!.&X,X$XE.Y.T.T.T.T.T.T.T.T.T.T.U.T.T.T.T.T.I.n.x.f.e.t.t.f.x.c.A.K.D.k.6.l.D.K.K.D.D.D.D.D.D.D.D.D.D.D.k.%.h.h.h.h.' O ",
"O L.!.!.!.!.R.J.j.j.j.j.h.h.h.j.h.h.h.h.h.h.h.h.k.g.2.X.[ ' ' ' [ [ X.2.h.g.q.:.q.h.h.h.h.h.h.h.h.h.h.h.k.g.h.h.h.h.h.h.h.h._ O ",
"O !.!.!.!.R.c.*Xh.h.h.h.h.h.5.*Xh.h.h.h.g.k.<.-Xk.2.X.[ ' _ u 9.[ X.2.h.h.q...*Xh.h.h.h.h.h.5.-Xh.h.h.h.h.h.6.*Xh.h.h.h.h.h.' O ",
"O !.!.!.R.b...} h.h.h.h.h.q.X.} h.h.h.h.k.q.....2.X.[ [ ' ' u u :.2.h.h.0.:.....h.h.h.h.h.q.....h.h.h.h.h.q...} h.h.h.h.h.h._ O ",
"d !.!.R.Z.h.7.q.h.h.h.h.k.k.6.q.h.h.k.k.h.h.7.,.:.[ [ ' [ ' [ X.2.h.k.q.:.2.6.q.h.h.h.k.h.h.7.q.h.k.h.h.h.h.7.q.h.h.h.h.h.h._ d ",
"j j j h j j j j j j j j j j j h j j j j j h j j j j j h j j j j j h j j j j j h j j j j j h j j h j j h j j j j j j j j j j j j "
};
