/* XPM */
static char *_889ec08be18405af54993f1a320cb36igC5SvtA7hVD8KaT[] = {
/* columns rows colors chars-per-pixel */
"35 50 55 1 ",
"  c None",
". c black",
"X c #282008",
"o c #382810",
"O c #202020",
"+ c #282828",
"@ c gray22",
"# c #403018",
"$ c #483818",
"% c #503818",
"& c #584020",
"* c #684820",
"= c #704828",
"- c #000040",
"; c #000048",
": c #000060",
"> c #000070",
", c #000078",
"< c #484848",
"1 c #505050",
"2 c #606060",
"3 c gray44",
"4 c gray47",
"5 c #805028",
"6 c #885830",
"7 c #905830",
"8 c #986038",
"9 c #A06038",
"0 c #A86840",
"q c #B07040",
"w c #B87848",
"e c #C87848",
"r c #D08050",
"t c #D88850",
"y c #E88858",
"u c #F09058",
"i c #F89860",
"p c #F8A070",
"a c #000088",
"s c #000098",
"d c #0000A8",
"f c #0000B0",
"g c #0000D0",
"h c #0000E0",
"j c #0000F8",
"k c #888888",
"l c #989898",
"z c gray66",
"x c #F8B080",
"c c #F8B890",
"v c #F8B898",
"b c #F8D0B8",
"n c #C0C0C0",
"m c #D0D0D0",
"M c gray91",
/* pixels */
"                                   ",
"                                   ",
"                                   ",
"                                   ",
"               zzk41<              ",
"              zmk11<@<             ",
"              kk211<@O             ",
"              l4311<@O             ",
"             lnMnk321+O            ",
"            ll+++++++.+O           ",
"              =0jxwj0=             ",
"              $uvO0vu$             ",
"              .8OMOy$.             ",
"           py...l.lO..#70          ",
"        cpe95#n.141.n#0058r        ",
"       0ppuipp6b.+.w..iiii8q       ",
"       wppiip8xwqptww8&rrwwq       ",
"       wcy0rw*xxqcpww8&0007=       ",
"        w09866&6660XX..&===o       ",
"        &&&&$oOOX.$$$q6$Xoo        ",
"          5XX#%OOO<rqq6$X          ",
"           6$X#5OOO<q96&o          ",
"           e6%$#5.OOO6&o           ",
"           eu8%##.6...&X           ",
"           1<@OOkk1OOO..           ",
"           1<@OO111OOO..           ",
"           eu8r==#==o*&X           ",
"          euutrq=.===5*$o          ",
"          euurrq=.=977*$o          ",
"         euuurrq..%9775$o          ",
"         euurrq=.X.=765$oX         ",
"         76==##.XoX......X         ",
"         qtyyw&#X X&9wt95X         ",
"        qeyiiw5#X X&wtiq9#         ",
"        qeixiw6X   X7rtiq#         ",
"        qtxx=w&X   X*=8ii&#        ",
"        qxrwu=X     Xwit99#        ",
"       qtixw$=#X   X&&9ti9&X       ",
"       qtixw7$X     X7wtt9&X       ",
"       qyiiw6&X     X7rrr9&X       ",
"       7www==#      X&77&&XX       ",
"       .OOOOO.       .OOOO.        ",
"       .,,-OO        .d>--.        ",
"       .d;-OO        .:d;-.        ",
"       .h,-OO         Odh-O.       ",
"       .d;-O          .:d;O.       ",
"       :d;O.           Od>-.       ",
"      +dg,;O.         Oagff>.      ",
"     +d>>-;O.         .ds>--O.     ",
"     OOOOOO.           .OOOOO.     "
};
