/* XPM */
static char *db40de88e8d044e5efb7758b0e59e1b9SfHiDa79ElP0oPz9[] = {
/* columns rows colors chars-per-pixel */
"35 50 62 1 ",
"  c None",
". c black",
"X c #282008",
"o c #382810",
"O c #202020",
"+ c #282828",
"@ c gray22",
"# c #600000",
"$ c #403018",
"% c #483818",
"& c #503818",
"* c #584020",
"= c #684820",
"- c #704828",
"; c #000040",
": c #000048",
"> c #000060",
", c #000070",
"< c #000078",
"1 c #484848",
"2 c #505050",
"3 c #606060",
"4 c gray44",
"5 c gray47",
"6 c #980000",
"7 c #C80000",
"8 c #E80000",
"9 c #F80000",
"0 c #B05000",
"q c #805028",
"w c #885830",
"e c #905830",
"r c #986038",
"t c #A06038",
"y c #A86840",
"u c #B07040",
"i c #B87848",
"p c #F05050",
"a c #C87848",
"s c #F88820",
"d c #F8F800",
"f c #D08050",
"g c #D88850",
"h c #E88858",
"j c #F09058",
"k c #F8A858",
"l c #F89860",
"z c #F8A070",
"x c #000088",
"c c #000098",
"v c #0000A8",
"b c #0000B0",
"n c #0000D0",
"m c #0000E0",
"M c #888888",
"N c #989898",
"B c gray66",
"V c #F8B080",
"C c #F8B890",
"Z c #C0C0C0",
"A c #D0D0D0",
"S c gray91",
/* pixels */
"                                   ",
"                                   ",
"                                   ",
"                                   ",
"               BBM521              ",
"              BAM221@1             ",
"              MM3221@O             ",
"              N54221@O             ",
"             NZSZM432+O            ",
"            N7+00000+.+O           ",
"              #p0k0p#-7            ",
"            p#6sddds0%             ",
"             #0kdSdk0.             ",
"           zh.08pkd80.$ey          ",
"        Czatq$#pss0p#0yyqrf        ",
"       yzzjl7zw#000#..llllru       ",
"       izzllzrV9uz0iir*ffiiu       ",
"       iChyfi=VVuCziir*yyye-       ",
"        iytrww*wwwyXX..*---o       ",
"        ****%oOOX.%%%uw%Xoo        ",
"          qXX$&OOO1fuuw%X          ",
"           w%X$qOOO1utw*o          ",
"           aw&%$q.OOOw*o           ",
"           ajr&$$.w...*X           ",
"           21@OOMM2OOO..           ",
"           21@OO222OOO..           ",
"           ajrf--$--o=*X           ",
"          ajjgfu-.---q=%o          ",
"          ajjffu-.-tee=%o          ",
"         ajjjffu..&teeq%o          ",
"         ajjffu-.X.-ewq%oX         ",
"         ew--$$.XoX......X         ",
"         ughhi*$X X*tigtqX         ",
"        uahlliq$X X*iglut$         ",
"        ualVliwX   Xefglu$         ",
"        ugVV-i*X   X=-rll*$        ",
"        uVfij-X     Xilgtt$        ",
"       uglVi%-$X   X**tglt*X       ",
"       uglVie%X     Xeiggt*X       ",
"       uhlliw*X     Xeffft*X       ",
"       eiii--$      X*ee**XX       ",
"       .OOOOO.       .OOOO.        ",
"       .<<;OO        .v,;;.        ",
"       .v:;OO        .>v:;.        ",
"       .m<;OO         Ovm;O.       ",
"       .v:;O          .>v:O.       ",
"       >v:O.           Ov,;.       ",
"      +vn<:O.         Oxnbb,.      ",
"     +v,,;:O.         .vc,;;O.     ",
"     OOOOOO.           .OOOOO.     "
};
